{
  "accessors": [
    {
      "bufferView": 2,
      "componentType": 5126,
      "count": 74,
      "max": [
        0.31869399547576904,
        0.27424401044845581,
        -0.64790898561477661
      ],
      "min": [
        -0.31766998767852783,
        -0.27424401044845581,
        -0.92393600940704346
      ],
      "type": "VEC3"
    },
    {
      "bufferView": 2,
      "byteOffset": 888,
      "componentType": 5126,
      "count": 74,
      "max": [
        1,
        0.99479013681411743,
        0.9944310188293457
      ],
      "min": [
        -1,
        -0.99479025602340698,
        -2.6631599325810384e-07
      ],
      "type": "VEC3"
    },
    {
      "bufferView": 3,
      "componentType": 5126,
      "count": 74,
      "max": [
        1,
        0.010058476589620113,
        1,
        1
      ],
      "min": [
        -2.6631602167981328e-07,
        -0.0099115781486034393,
        -1,
        1
      ],
      "type": "VEC4"
    },
    {
      "bufferView": 1,
      "componentType": 5126,
      "count": 74,
      "max": [
        0.44003599882125854,
        0.42897200584411621
      ],
      "min": [
        0.064322203397750854,
        0.24576100707054138
      ],
      "type": "VEC2"
    },
    {
      "bufferView": 1,
      "byteOffset": 592,
      "componentType": 5126,
      "count": 74,
      "max": [
        0.44003599882125854,
        0.42897200584411621
      ],
      "min": [
        0.064322203397750854,
        0.24576100707054138
      ],
      "type": "VEC2"
    },
    {
      "bufferView": 0,
      "componentType": 5125,
      "count": 168,
      "max": [
        73
      ],
      "min": [
        0
      ],
      "type": "SCALAR"
    },
    {
      "bufferView": 2,
      "byteOffset": 1776,
      "componentType": 5126,
      "count": 464,
      "max": [
        0.37233799695968628,
        0.36363598704338074,
        1
      ],
      "min": [
        -0.37233701348304749,
        -0.36363598704338074,
        -1
      ],
      "type": "VEC3"
    },
    {
      "bufferView": 2,
      "byteOffset": 7344,
      "componentType": 5126,
      "count": 464,
      "max": [
        0.85463470220565796,
        1,
        0.99999076128005981
      ],
      "min": [
        -0.85010886192321777,
        -1,
        -0.99999076128005981
      ],
      "type": "VEC3"
    },
    {
      "bufferView": 3,
      "byteOffset": 1184,
      "componentType": 5126,
      "count": 464,
      "max": [
        1,
        0.99999064207077026,
        0.0060394606553018093,
        1
      ],
      "min": [
        -0.39557921886444092,
        -0.99999070167541504,
        -1,
        1
      ],
      "type": "VEC4"
    },
    {
      "bufferView": 1,
      "byteOffset": 1184,
      "componentType": 5126,
      "count": 464,
      "max": [
        0.99949997663497925,
        0.99763697385787964
      ],
      "min": [
        0.00050000002374872565,
        0.00050000002374872565
      ],
      "type": "VEC2"
    },
    {
      "bufferView": 1,
      "byteOffset": 4896,
      "componentType": 5126,
      "count": 464,
      "max": [
        0.99949997663497925,
        0.99763697385787964
      ],
      "min": [
        0.00050000002374872565,
        0.00050000002374872565
      ],
      "type": "VEC2"
    },
    {
      "bufferView": 0,
      "byteOffset": 672,
      "componentType": 5125,
      "count": 1344,
      "max": [
        463
      ],
      "min": [
        0
      ],
      "type": "SCALAR"
    }
  ],
  "asset": {
    "extras": {
      "author": "mrfurrer (https://sketchfab.com/mrfurrer)",
      "license": "CC-BY-NC-4.0 (http://creativecommons.org/licenses/by-nc/4.0/)",
      "source": "https://sketchfab.com/3d-models/desk-86aeb68defa1461da9db2b529493515c",
      "title": "Desk"
    },
    "generator": "Sketchfab-8.16.0",
    "version": "2.0"
  },
  "bufferViews": [
    {
      "buffer": 0,
      "byteLength": 6048,
      "byteOffset": 0,
      "name": "floatBufferViews",
      "target": 34963
    },
    {
      "buffer": 0,
      "byteLength": 8608,
      "byteOffset": 6048,
      "byteStride": 8,
      "name": "floatBufferViews",
      "target": 34962
    },
    {
      "buffer": 0,
      "byteLength": 12912,
      "byteOffset": 14656,
      "byteStride": 12,
      "name": "floatBufferViews",
      "target": 34962
    },
    {
      "buffer": 0,
      "byteLength": 8608,
      "byteOffset": 27568,
      "byteStride": 16,
      "name": "floatBufferViews",
      "target": 34962
    }
  ],
  "buffers": [
    {
      "byteLength": 36176,
      "uri": "scene.bin"
    }
  ],
  "images": [
    {
      "uri": "textures/plastic_baseColor.jpeg"
    },
    {
      "uri": "textures/plastic_metallicRoughness.png"
    },
    {
      "uri": "textures/plastic_normal.png"
    },
    {
      "uri": "textures/wood_baseColor.jpeg"
    },
    {
      "uri": "textures/wood_metallicRoughness.png"
    },
    {
      "uri": "textures/wood_normal.png"
    }
  ],
  "materials": [
    {
      "doubleSided": true,
      "name": "plastic",
      "normalTexture": {
        "index": 2,
        "scale": 1,
        "texCoord": 0
      },
      "occlusionTexture": {
        "index": 1,
        "strength": 1,
        "texCoord": 0
      },
      "pbrMetallicRoughness": {
        "baseColorFactor": [
          1,
          1,
          1,
          1
        ],
        "baseColorTexture": {
          "index": 0,
          "texCoord": 0
        },
        "metallicFactor": 1,
        "metallicRoughnessTexture": {
          "index": 1,
          "texCoord": 0
        },
        "roughnessFactor": 1
      }
    },
    {
      "doubleSided": true,
      "name": "wood",
      "normalTexture": {
        "index": 5,
        "scale": 1,
        "texCoord": 0
      },
      "occlusionTexture": {
        "index": 4,
        "strength": 1,
        "texCoord": 0
      },
      "pbrMetallicRoughness": {
        "baseColorFactor": [
          1,
          1,
          1,
          1
        ],
        "baseColorTexture": {
          "index": 3,
          "texCoord": 0
        },
        "metallicFactor": 1,
        "metallicRoughnessTexture": {
          "index": 4,
          "texCoord": 0
        },
        "roughnessFactor": 1
      }
    }
  ],
  "meshes": [
    {
      "name": "defaultMaterial",
      "primitives": [
        {
          "attributes": {
            "NORMAL": 1,
            "POSITION": 0,
            "TANGENT": 2,
            "TEXCOORD_0": 3,
            "TEXCOORD_1": 4
          },
          "indices": 5,
          "material": 1,
          "mode": 4
        }
      ]
    },
    {
      "name": "defaultMaterial",
      "primitives": [
        {
          "attributes": {
            "NORMAL": 7,
            "POSITION": 6,
            "TANGENT": 8,
            "TEXCOORD_0": 9,
            "TEXCOORD_1": 10
          },
          "indices": 11,
          "material": 0,
          "mode": 4
        }
      ]
    }
  ],
  "nodes": [
    {
      "children": [
        1
      ],
      "name": "RootNode (gltf orientation matrix)",
      "rotation": [
        -0.70710678118654746,
        -0,
        -0,
        0.70710678118654757
      ]
    },
    {
      "children": [
        2
      ],
      "name": "RootNode (model correction matrix)"
    },
    {
      "children": [
        3,
        5
      ],
      "matrix": [
        1,
        0,
        0,
        0,
        0,
        -4.3711390063094768e-08,
        0.999999999999999,
        0,
        0,
        -0.999999999999999,
        -4.3711390063094768e-08,
        0,
        0,
        0,
        0,
        1
      ],
      "name": "Collada visual scene group"
    },
    {
      "children": [
        4
      ],
      "name": "SM_Desk"
    },
    {
      "mesh": 0,
      "name": "defaultMaterial"
    },
    {
      "children": [
        6
      ],
      "name": "SM_Desk"
    },
    {
      "mesh": 1,
      "name": "defaultMaterial"
    }
  ],
  "samplers": [
    {
      "magFilter": 9729,
      "minFilter": 9987,
      "wrapS": 10497,
      "wrapT": 10497
    }
  ],
  "scene": 0,
  "scenes": [
    {
      "name": "OSG_Scene",
      "nodes": [
        0
      ]
    }
  ],
  "textures": [
    {
      "sampler": 0,
      "source": 0
    },
    {
      "sampler": 0,
      "source": 1
    },
    {
      "sampler": 0,
      "source": 2
    },
    {
      "sampler": 0,
      "source": 3
    },
    {
      "sampler": 0,
      "source": 4
    },
    {
      "sampler": 0,
      "source": 5
    }
  ]
}

